<?xml version="1.0" encoding="utf-8"?>
<!-- Generator: Adobe Illustrator 27.5.0, SVG Export Plug-In . SVG Version: 6.00 Build 0)  -->
<svg version="1.1" id="BASE" xmlns="http://www.w3.org/2000/svg" xmlns:xlink="http://www.w3.org/1999/xlink" x="0px" y="0px"
	 viewBox="0 0 2122 2122" style="enable-background:new 0 0 2122 2122;" xml:space="preserve">
<g>
	<path style="fill:#F6E0D3;" d="M1956.752,842.8c-21.688-110.21-106.679-205.622-213.659-239.856
		c-43.19-13.82-90.233-18.115-134.039-6.391c-2.031,0.543-4.047,1.115-6.05,1.709c-5.569-7.499-11.526-15.019-17.855-22.547
		c18.732-8.043,36.817-17.442,53.775-28.766c25.705-17.165,49.065-40.006,68.114-66.101c24.103-33.019,41.303-71.246,47.613-109.773
		c10.397-63.478,1.064-175.491-58.349-214.272c-31.653-20.661-74.242-21.056-104.388,2.2
		c-36.62,28.249-47.644,76.533-37.333,120.054c21.523,90.85,33.608,178.67-1.657,261.491
		c-15.098-15.223-31.642-30.398-49.524-45.423c-0.746-19.334-3.619-38.338-8.784-56.333
		c-17.751-61.826-74.096-159.085-144.386-168.73c-37.448-5.138-76.114,12.72-93.418,46.635c-3.352,6.569-5.895,13.32-7.693,20.17
		c-36.109-16.92-73.948-32.828-113.245-47.457c-339.184-126.273-658.466-109.588-713.14,37.267l-0.001,0l-0.002,0.012
		c-4.49,12.062-7.053,24.628-7.792,37.602L164.96,1570.688c-38.619,103.729,124.293,260.125,363.868,349.318
		c141.976,52.854,279.012,70.246,375.144,54.059l0.044-0.007c0.8-0.135,1.598-0.272,2.394-0.412c0.07-0.013,0.142-0.025,0.214-0.037
		c0.761-0.134,1.52-0.271,2.278-0.41c0.077-0.014,0.153-0.028,0.23-0.042c0.749-0.138,1.497-0.278,2.241-0.42
		c0.087-0.016,0.172-0.032,0.258-0.048c0.653-0.125,1.302-0.252,1.951-0.381c0.188-0.037,0.377-0.073,0.564-0.111
		c0.796-0.159,1.589-0.32,2.38-0.484c0.05-0.01,0.101-0.02,0.151-0.031c0.044-0.009,0.088-0.018,0.131-0.028
		c0.876-0.182,1.748-0.368,2.617-0.557c0.258-0.056,0.514-0.114,0.771-0.171c0.552-0.121,1.105-0.242,1.653-0.365
		c0.095-0.021,0.19-0.043,0.285-0.064c0.034-0.007,0.067-0.016,0.101-0.023c0.084-0.019,0.168-0.038,0.252-0.057
		c0.767-0.175,1.533-0.351,2.292-0.53c0.205-0.048,0.407-0.098,0.612-0.146c0.553-0.132,1.102-0.264,1.651-0.398
		c0.173-0.042,0.346-0.085,0.519-0.127l0.005-0.002c0.154-0.037,0.307-0.075,0.459-0.112c0.465-0.116,0.929-0.233,1.393-0.35
		c0.016-0.004,0.033-0.008,0.049-0.012c0.191-0.048,0.384-0.096,0.574-0.144c0.312-0.08,0.622-0.161,0.933-0.241
		c0.207-0.053,0.412-0.108,0.618-0.161c0.034-0.009,0.068-0.018,0.103-0.027c0.171-0.044,0.344-0.089,0.514-0.134
		c0.385-0.102,0.771-0.204,1.154-0.307c0.536-0.144,1.07-0.289,1.602-0.435c0.462-0.127,0.922-0.255,1.381-0.384
		c0.313-0.088,0.625-0.176,0.936-0.264c0.273-0.078,0.543-0.157,0.815-0.235c0.202-0.058,0.406-0.117,0.608-0.176
		c0.466-0.135,0.93-0.271,1.391-0.408c0.122-0.036,0.242-0.072,0.363-0.109c0.415-0.124,0.832-0.246,1.245-0.372
		c0.145-0.044,0.29-0.088,0.435-0.133c0.391-0.12,0.78-0.242,1.169-0.363c0.163-0.051,0.328-0.102,0.491-0.153
		c0.475-0.149,0.947-0.299,1.42-0.449c0.145-0.047,0.29-0.093,0.435-0.14c0.379-0.122,0.759-0.242,1.134-0.365
		c0.051-0.016,0.102-0.033,0.152-0.05c0.586-0.192,1.169-0.387,1.751-0.582c0.198-0.067,0.397-0.134,0.594-0.202
		c0.441-0.149,0.878-0.299,1.316-0.45c0.156-0.054,0.312-0.107,0.466-0.161c0.533-0.186,1.065-0.373,1.593-0.562
		c0.263-0.094,0.525-0.188,0.786-0.282c0.298-0.107,0.594-0.215,0.891-0.323c0.274-0.1,0.548-0.199,0.821-0.301
		c0.467-0.173,0.932-0.347,1.395-0.521c0.333-0.126,0.665-0.253,0.996-0.38c0.2-0.076,0.398-0.153,0.597-0.229
		c0.351-0.136,0.702-0.272,1.051-0.409c0.117-0.046,0.233-0.092,0.35-0.139c0.667-0.264,1.331-0.53,1.993-0.799
		c0.158-0.064,0.316-0.129,0.476-0.194c0.364-0.149,0.728-0.3,1.09-0.451c0.08-0.033,0.159-0.066,0.239-0.099
		c34.509-14.42,58.73-35.778,69.201-63.903l552.966-992.169c4.931,5.945,9.303,12.597,13.075,20.027
		c7.645,15.058,12.821,33.304,15.175,55.297c4.423,41.323,2.101,84.874,20.401,122.187c25.179,51.342,87.536,78.748,144.111,70.423
		C1920.095,1148.594,1981.272,967.398,1956.752,842.8z"/>
	<path style="fill:#FDE7D8;" d="M1956.752,842.8c-21.688-110.21-106.679-205.622-213.659-239.856
		c-43.19-13.82-90.233-18.115-134.039-6.391c-2.031,0.543-4.047,1.115-6.05,1.709c-5.569-7.499-11.526-15.019-17.855-22.547
		c18.732-8.043,36.817-17.442,53.775-28.766c25.705-17.165,49.065-40.006,68.114-66.101c24.103-33.019,41.303-71.246,47.613-109.773
		c10.397-63.478,1.064-175.491-58.349-214.272c-31.653-20.661-74.242-21.056-104.388,2.2
		c-36.62,28.249-47.644,76.533-37.333,120.054c21.523,90.85,33.608,178.67-1.657,261.491
		c-15.098-15.223-31.642-30.398-49.524-45.423c-0.746-19.334-3.619-38.338-8.784-56.333
		c-17.751-61.826-74.096-159.085-144.386-168.73c-37.448-5.138-76.114,12.72-93.418,46.635c-3.352,6.569-5.895,13.32-7.693,20.17
		c-36.109-16.92-73.948-32.828-113.245-47.457c-339.184-126.273-658.466-109.588-713.14,37.267v0.001l-0.003,0.01
		c-4.49,12.062-7.053,24.628-7.792,37.602c-8.245,144.984,211.633,341.033,522.949,456.931
		c86.517,32.209,171.739,55.115,251.605,68.934c-19.641,41.576-41.115,87.022-63.786,134.981h-0.005l-0.038,0.079
		c-37.789-1.628-75.904-0.817-114.067,0.81c-9.38-3.542-18.692-7.241-27.76-11.503c-116.532-54.772-174.923-187.06-276.961-265.596
		c-39.428-30.347-84.974-54.37-133.446-66.292c-24.065-5.919-49.031-8.726-73.791-6.841c-23.914,1.82-49.243,6.46-70.328,18.221
		c-16.869,9.409-31.608,22.683-42.496,38.655c-7.262,10.651-12.814,22.742-15.021,35.5l-0.172,1.321l-7.05,34.007L343.22,906.589
		l-126.051,608.3l-6.453,31.14l0.016,0.006c-4.674,12.563-6.153,25.961-4.7,39.944c9.649,92.916,148.821,211.694,341.619,283.469
		c53.628,19.965,106.486,34.449,156.332,43.603c-15.034,31.047-23.999,49.125-25.079,50.37
		c53.5,11.013,104.119,16.458,149.582,16.458c27.173,0,52.498-1.947,75.485-5.814l0.044-0.007c0.8-0.135,1.598-0.272,2.394-0.412
		c0.07-0.013,0.142-0.025,0.214-0.037c0.761-0.134,1.52-0.271,2.278-0.41c0.077-0.014,0.153-0.028,0.23-0.042
		c0.749-0.138,1.497-0.278,2.241-0.42c0.087-0.016,0.172-0.032,0.258-0.048c0.653-0.125,1.302-0.252,1.951-0.381
		c0.188-0.037,0.377-0.073,0.564-0.111c0.796-0.159,1.589-0.32,2.38-0.484c0.05-0.01,0.101-0.02,0.151-0.031
		c0.041-0.008,0.083-0.018,0.124-0.026c0.876-0.183,1.748-0.368,2.616-0.557c0.002,0,0.005-0.001,0.007-0.002
		c0.258-0.056,0.514-0.114,0.771-0.171c0.023-0.005,0.045-0.01,0.067-0.015c0.625-0.137,1.25-0.274,1.871-0.415
		c0.034-0.007,0.067-0.016,0.101-0.023c1.792-0.407,3.568-0.826,5.326-1.259l0.062-0.016c0.6-0.148,1.199-0.298,1.795-0.448
		c0.016-0.004,0.033-0.008,0.049-0.012c2.925-0.741,5.803-1.52,8.631-2.334c0.202-0.058,0.406-0.117,0.608-0.176
		c0.466-0.135,0.93-0.271,1.391-0.408c0.122-0.036,0.242-0.072,0.363-0.109c0.956-0.285,1.905-0.575,2.849-0.868
		c0.163-0.051,0.328-0.102,0.491-0.153c0.475-0.149,0.947-0.298,1.42-0.449c0.145-0.047,0.29-0.093,0.435-0.14
		c30.671-9.872,54.929-24.338,70.924-43.301c0.003-0.004,0.007-0.008,0.009-0.011c0.858-1.018,1.693-2.049,2.503-3.093
		c0.007-0.009,0.014-0.019,0.023-0.029c0.404-0.522,0.803-1.046,1.196-1.574c0-0.001,0.002-0.002,0.003-0.003
		c0.383-0.515,0.759-1.034,1.13-1.555c0.018-0.025,0.036-0.051,0.055-0.076c0.37-0.522,0.735-1.047,1.095-1.575
		c0.017-0.025,0.035-0.051,0.052-0.076c0.34-0.5,0.673-1.004,1.003-1.51c0.027-0.041,0.055-0.082,0.082-0.124
		c0.336-0.519,0.666-1.04,0.991-1.564c0.034-0.056,0.068-0.112,0.102-0.168c0.305-0.491,0.602-0.984,0.896-1.48
		c0.028-0.047,0.057-0.095,0.085-0.143c0.303-0.514,0.599-1.03,0.892-1.549c0.053-0.094,0.106-0.189,0.16-0.284
		c0.269-0.484,0.534-0.969,0.795-1.457l0.069-0.128c0.278-0.522,0.548-1.046,0.816-1.574c0.053-0.107,0.108-0.215,0.162-0.323
		c0.246-0.491,0.488-0.984,0.726-1.479c0.021-0.043,0.043-0.085,0.062-0.128c0.252-0.528,0.498-1.061,0.739-1.594
		c0.052-0.116,0.105-0.232,0.157-0.348c0.236-0.53,0.47-1.061,0.696-1.595c0.002-0.007,0.006-0.015,0.01-0.021
		c0.229-0.539,0.45-1.082,0.668-1.627c0.053-0.133,0.107-0.266,0.16-0.4c0.214-0.542,0.425-1.086,0.628-1.632l552.961-992.157
		c0.002,0.002,0.003,0.005,0.005,0.006c4.931,5.945,9.303,12.597,13.075,20.027c7.645,15.058,12.821,33.304,15.175,55.297
		c4.423,41.323,2.101,84.874,20.401,122.187c25.179,51.342,87.536,78.748,144.111,70.423
		C1920.095,1148.594,1981.272,967.398,1956.752,842.8z M1073.617,456.584c-196.163-73.028-383.918-98.426-509.588-77.305
		c-41.114,6.91-75.583,18.799-101.526,35.629l-0.436-1.436l-0.014-0.052c-0.022-0.077-0.043-0.154-0.064-0.23
		c-0.062-0.227-0.126-0.453-0.186-0.679c-0.052-0.188-0.102-0.375-0.154-0.563l-0.186-0.698c-0.047-0.182-0.095-0.363-0.143-0.545
		c-0.059-0.228-0.119-0.456-0.178-0.684c-0.05-0.197-0.099-0.393-0.149-0.589c-0.055-0.221-0.111-0.44-0.166-0.661
		c-0.051-0.211-0.102-0.421-0.154-0.632c-0.046-0.195-0.095-0.389-0.141-0.583c-0.071-0.302-0.141-0.603-0.212-0.904
		c-0.024-0.108-0.051-0.216-0.075-0.325c-0.096-0.419-0.19-0.837-0.283-1.256c-0.012-0.058-0.024-0.116-0.036-0.174
		c-0.078-0.354-0.153-0.706-0.229-1.06c-0.036-0.175-0.072-0.35-0.108-0.525c-0.047-0.23-0.096-0.461-0.143-0.691
		c-0.04-0.201-0.079-0.401-0.119-0.601c-0.041-0.215-0.085-0.43-0.127-0.644l-0.11-0.584c-0.042-0.222-0.084-0.444-0.124-0.666
		c-0.034-0.181-0.065-0.362-0.098-0.543c-0.041-0.232-0.083-0.465-0.123-0.696c-0.033-0.186-0.064-0.371-0.096-0.557l-0.113-0.677
		c-0.029-0.18-0.058-0.36-0.088-0.54c-0.038-0.232-0.073-0.465-0.109-0.697c-0.028-0.18-0.056-0.359-0.083-0.538
		c-0.037-0.243-0.073-0.486-0.107-0.73c-0.024-0.162-0.049-0.324-0.071-0.486c-0.039-0.269-0.074-0.538-0.111-0.807
		c-0.018-0.137-0.038-0.274-0.056-0.411c-0.034-0.255-0.066-0.51-0.098-0.764c-0.037-0.29-0.072-0.579-0.107-0.868
		c-0.032-0.267-0.063-0.533-0.094-0.8c-0.013-0.122-0.026-0.244-0.039-0.367c-0.031-0.287-0.063-0.574-0.092-0.861
		c-0.016-0.155-0.03-0.31-0.046-0.466c-0.023-0.238-0.046-0.478-0.069-0.716c-0.016-0.177-0.032-0.353-0.047-0.53
		c-0.021-0.238-0.042-0.476-0.061-0.714c-0.014-0.16-0.027-0.319-0.039-0.479c-0.02-0.241-0.038-0.483-0.056-0.724
		c-0.012-0.17-0.023-0.34-0.035-0.509c-0.016-0.225-0.031-0.45-0.045-0.674c-0.011-0.184-0.023-0.368-0.034-0.551
		c-0.013-0.213-0.023-0.425-0.035-0.638c-0.011-0.194-0.02-0.387-0.03-0.58c-0.009-0.2-0.018-0.4-0.026-0.6
		c-0.008-0.197-0.018-0.394-0.026-0.59c-0.007-0.207-0.014-0.413-0.02-0.619c-0.006-0.193-0.014-0.385-0.019-0.576
		c-0.007-0.234-0.012-0.468-0.017-0.701c-0.003-0.157-0.007-0.314-0.009-0.471c-0.007-0.393-0.012-0.784-0.016-1.176
		c0-0.102,0-0.203-0.001-0.304c-0.001-0.291-0.001-0.582-0.001-0.873c0.001-0.153,0.003-0.305,0.004-0.458
		c0.001-0.245,0.004-0.489,0.006-0.733c0.003-0.164,0.007-0.328,0.009-0.492c0.004-0.23,0.008-0.459,0.014-0.688
		c0.004-0.167,0.009-0.334,0.014-0.5c0.006-0.223,0.012-0.444,0.02-0.666c0.005-0.175,0.013-0.349,0.02-0.524
		c0.009-0.227,0.019-0.454,0.028-0.681c0.008-0.165,0.016-0.329,0.023-0.493c0.011-0.214,0.023-0.427,0.034-0.641
		c0.011-0.182,0.022-0.363,0.032-0.545c0.015-0.223,0.029-0.445,0.043-0.667l0.033-0.487c0.017-0.23,0.035-0.462,0.052-0.692
		c0.013-0.159,0.026-0.319,0.039-0.477c0.018-0.224,0.037-0.446,0.058-0.669c0.015-0.17,0.029-0.341,0.045-0.511
		c0.033-0.344,0.067-0.688,0.102-1.031c0.004-0.031,0.006-0.062,0.008-0.093c0.005-0.035,0.009-0.071,0.013-0.107
		c0.034-0.321,0.069-0.642,0.106-0.962c0.041-0.36,0.085-0.719,0.13-1.078c0.004-0.025,0.007-0.051,0.01-0.076
		c0.003-0.02,0.006-0.039,0.008-0.059c0.022-0.174,0.045-0.347,0.068-0.52c0.013-0.105,0.026-0.208,0.041-0.313
		c0.013-0.1,0.026-0.199,0.04-0.299c0.003-0.02,0.006-0.039,0.008-0.058l0.062-0.43c0.015-0.102,0.028-0.205,0.044-0.306
		c0.017-0.127,0.036-0.253,0.056-0.379l0.011-0.075c0.001-0.011,0.004-0.022,0.005-0.033l0.062-0.398
		c0.013-0.084,0.026-0.169,0.039-0.253c0.02-0.13,0.042-0.26,0.062-0.39c0.001-0.004,0.001-0.007,0.003-0.011
		c0.026-0.168,0.055-0.336,0.083-0.504c0.013-0.081,0.026-0.162,0.04-0.243l0.059-0.34c0.002-0.014,0.006-0.029,0.009-0.044
		c0.006-0.038,0.013-0.075,0.019-0.113c0.026-0.144,0.05-0.288,0.076-0.433c0.024-0.141,0.051-0.282,0.077-0.422
		c0.014-0.07,0.026-0.141,0.039-0.211c0.009-0.05,0.018-0.099,0.029-0.148c0.019-0.102,0.037-0.205,0.057-0.307
		c0.045-0.236,0.091-0.471,0.138-0.706c0.014-0.069,0.028-0.137,0.041-0.205c0.014-0.075,0.03-0.151,0.045-0.227
		c0.013-0.065,0.025-0.131,0.039-0.196c0.037-0.182,0.076-0.363,0.114-0.545c0.003-0.014,0.006-0.027,0.008-0.041
		c0.023-0.11,0.046-0.221,0.069-0.332c0.02-0.091,0.04-0.182,0.06-0.273c0.039-0.179,0.078-0.358,0.118-0.536
		c0.011-0.049,0.022-0.098,0.033-0.147c0.012-0.056,0.024-0.114,0.037-0.17c0.022-0.097,0.045-0.193,0.067-0.289
		c0.042-0.188,0.086-0.376,0.131-0.564c0.022-0.095,0.044-0.192,0.067-0.287c0.011-0.05,0.024-0.1,0.036-0.15
		c0.012-0.05,0.024-0.1,0.036-0.15c0.045-0.189,0.091-0.377,0.139-0.565c0.021-0.083,0.04-0.165,0.061-0.247
		c0.031-0.126,0.064-0.25,0.096-0.376c0-0.001,0-0.003,0.002-0.004c0.041-0.164,0.083-0.327,0.125-0.491
		c0.021-0.078,0.041-0.156,0.061-0.233c0.04-0.151,0.081-0.301,0.122-0.452c0.009-0.034,0.018-0.068,0.026-0.102
		c0.033-0.12,0.063-0.24,0.098-0.361c0.02-0.072,0.04-0.144,0.059-0.216c0.039-0.141,0.079-0.282,0.118-0.423
		c0.045-0.159,0.089-0.318,0.134-0.476c0.02-0.069,0.041-0.137,0.061-0.206c0.012-0.041,0.024-0.083,0.036-0.124
		c0.03-0.107,0.061-0.215,0.092-0.321c0.05-0.17,0.1-0.339,0.151-0.508l0.073-0.242c0.036-0.121,0.073-0.241,0.109-0.362
		c0.052-0.17,0.106-0.34,0.159-0.51l0.045-0.142c0.035-0.114,0.072-0.228,0.108-0.342c0.015-0.043,0.027-0.087,0.041-0.131
		c0.054-0.169,0.109-0.338,0.164-0.507l0.029-0.087c0.044-0.135,0.088-0.269,0.133-0.404c0.011-0.035,0.023-0.071,0.035-0.107
		c0.062-0.189,0.127-0.377,0.191-0.566c0.005-0.015,0.01-0.029,0.015-0.044c0.045-0.134,0.091-0.268,0.137-0.403
		c0.009-0.025,0.017-0.05,0.026-0.076c0.075-0.218,0.152-0.435,0.23-0.653c0.015-0.042,0.029-0.084,0.044-0.126
		c0.024-0.069,0.049-0.138,0.073-0.206c0.011-0.033,0.022-0.065,0.034-0.097c0.129-0.36,0.26-0.718,0.393-1.077v-0.001
		c22.32-59.954,100.968-92.779,211.482-97.948c0.949-0.044,1.899-0.087,2.851-0.127c121.022-5.123,279.639,22.602,444.184,83.86
		c43.855,16.326,85.831,34.179,125.488,53.156l0.003,0.013c3.452,21.825,13.155,42.876,27.254,60.507
		c42.949,53.706,80.567,108.117,98.825,168.998C1291.842,553.284,1189.248,499.632,1073.617,456.584z M1566.031,612.616
		c-36.84,17.696-69.422,43.513-100.978,71.447c-4.887-4.607-9.928-9.214-15.118-13.817c5.432-7.423,10.552-15.073,15.294-22.982
		c15.894-26.509,27.241-57.147,33.299-88.882c0.922-4.83,1.72-9.685,2.395-14.554c0,0,0,0,0-0.001
		c5.403,4.847,10.641,9.698,15.705,14.549c1.113,1.067,2.217,2.133,3.313,3.199c0.19,0.185,0.383,0.37,0.573,0.556
		c4.826,4.704,9.486,9.406,13.982,14.103c-0.001,0-0.001,0-0.001,0.001c-4.631,7.566-9.717,15.087-15.293,22.56
		c9.393-2.727,18.764-5.618,28.058-8.733c0,0,0.001-0.001,0.003-0.001c6.708,7.546,12.972,15.069,18.775,22.553
		C1566.033,612.615,1566.033,612.615,1566.031,612.616z"/>
	<path style="fill:#E5D2C6;" d="M1956.752,842.8c-21.688-110.21-106.679-205.622-213.659-239.856
		c-43.19-13.82-90.233-18.115-134.039-6.391c-2.031,0.543-4.047,1.115-6.05,1.709c-12.835,3.812-25.123,8.661-36.969,14.352
		c-0.002,0.001-0.002,0.001-0.004,0.002c-36.84,17.696-69.422,43.513-100.978,71.447c-4.887-4.607-9.928-9.214-15.118-13.817
		c5.432-7.423,10.552-15.073,15.294-22.982c15.894-26.509,27.241-57.147,33.299-88.882c0.922-4.83,1.72-9.685,2.395-14.554
		c0,0,0,0,0-0.001c2.244-16.202,3.101-32.567,2.479-48.702c-0.746-19.334-3.619-38.338-8.784-56.333
		c-17.751-61.826-74.096-159.085-144.386-168.73c-37.448-5.138-76.114,12.72-93.418,46.635c-3.352,6.569-5.895,13.32-7.693,20.17
		c-3.786,14.422-4.258,29.281-1.963,43.798l0.003,0.013c3.452,21.825,13.155,42.876,27.254,60.507
		c42.949,53.706,80.567,108.117,98.825,168.998c-81.396-56.898-183.99-110.551-299.621-153.599
		c-196.163-73.028-383.918-98.426-509.588-77.305c-41.114,6.91-75.583,18.799-101.526,35.629
		c34.916,120.475,229.135,271.235,489.578,368.194c63.331,23.577,125.781,42.187,185.547,55.871
		c-1.827-0.008-3.654-0.007-5.481,0.003c23.393,11.282,47.034,18.374,70.853,22.589c35.694,6.316,71.793,6.175,108.069,4
		c63.377,4.381,120.113,1.602,167.007-8.266c28.123,1.86,53.097,7.14,73.769,17.657c-85.379,35.231-214.714,40.744-362.351,15.199
		c-19.641,41.576-41.115,87.022-63.786,134.981h-0.005l-0.038,0.079c-37.789-1.628-75.904-0.817-114.067,0.81
		c-9.38-3.542-18.692-7.241-27.76-11.503c-116.532-54.772-174.923-187.06-276.961-265.596
		c-39.428-30.347-84.974-54.37-133.446-66.292c-24.065-5.919-49.031-8.726-73.791-6.841c-23.914,1.82-49.243,6.46-70.328,18.221
		c-16.869,9.409-31.608,22.683-42.496,38.655c-7.262,10.651-12.814,22.742-15.021,35.5l-0.172,1.321l-7.05,34.007L343.22,906.589
		l-126.051,608.3l-6.453,31.14l0.016,0.006c-4.674,12.563-6.153,25.961-4.7,39.944c9.649,92.916,148.821,211.694,341.619,283.469
		c53.628,19.965,106.486,34.449,156.332,43.603c-15.034,31.047-23.999,49.125-25.079,50.37
		c53.5,11.013,104.119,16.458,149.582,16.458c27.173,0,52.498-1.947,75.485-5.814l0.044-0.007c0.8-0.135,1.598-0.272,2.394-0.412
		c0.07-0.013,0.142-0.025,0.214-0.037c0.761-0.134,1.52-0.271,2.278-0.41c0.077-0.014,0.153-0.028,0.23-0.042
		c0.749-0.138,1.497-0.278,2.241-0.42c0.087-0.016,0.172-0.032,0.258-0.048c0.653-0.125,1.302-0.252,1.951-0.381
		c0.188-0.037,0.377-0.073,0.564-0.111c0.796-0.159,1.589-0.32,2.38-0.484c0.05-0.01,0.101-0.02,0.151-0.031
		c0.041-0.008,0.083-0.018,0.124-0.026c0.876-0.183,1.748-0.368,2.616-0.557c0.002,0,0.005-0.001,0.007-0.002
		c0.258-0.056,0.514-0.114,0.771-0.171c0.023-0.005,0.045-0.01,0.067-0.015c0.625-0.137,1.25-0.274,1.871-0.415
		c0.034-0.007,0.067-0.016,0.101-0.023c1.792-0.407,3.568-0.826,5.326-1.259l0.062-0.016c0.6-0.148,1.199-0.298,1.795-0.448
		c0.016-0.004,0.033-0.008,0.049-0.012c2.925-0.741,5.803-1.52,8.631-2.334c0.202-0.058,0.406-0.117,0.608-0.176
		c0.466-0.135,0.93-0.271,1.391-0.408c0.122-0.036,0.242-0.072,0.363-0.109c0.956-0.285,1.905-0.575,2.849-0.868
		c0.163-0.051,0.328-0.102,0.491-0.153c0.475-0.149,0.947-0.298,1.42-0.449c0.145-0.047,0.29-0.093,0.435-0.14
		c30.671-9.872,54.929-24.338,70.924-43.301c0.003-0.004,0.007-0.008,0.009-0.011c0.858-1.018,1.693-2.049,2.503-3.093
		c0.007-0.009,0.014-0.019,0.023-0.029c0.404-0.522,0.803-1.046,1.196-1.574c0-0.001,0.002-0.002,0.003-0.003
		c0.383-0.515,0.759-1.034,1.13-1.555c0.018-0.025,0.036-0.051,0.055-0.076c0.37-0.522,0.735-1.047,1.095-1.575
		c0.017-0.025,0.035-0.051,0.052-0.076c0.34-0.5,0.673-1.004,1.003-1.51c0.027-0.041,0.055-0.082,0.082-0.124
		c0.336-0.519,0.666-1.04,0.991-1.564c0.034-0.056,0.068-0.112,0.102-0.168c0.305-0.491,0.602-0.984,0.896-1.48
		c0.028-0.047,0.057-0.095,0.085-0.143c0.303-0.514,0.599-1.03,0.892-1.549c0.053-0.094,0.106-0.189,0.16-0.284
		c0.269-0.484,0.534-0.969,0.795-1.457l0.069-0.128c0.278-0.522,0.548-1.046,0.816-1.574c0.053-0.107,0.108-0.215,0.162-0.323
		c0.246-0.491,0.488-0.984,0.726-1.479c0.021-0.043,0.043-0.085,0.062-0.128c0.252-0.528,0.498-1.061,0.739-1.594
		c0.052-0.116,0.105-0.232,0.157-0.348c0.236-0.53,0.47-1.061,0.696-1.595c0.002-0.007,0.006-0.015,0.01-0.021
		c0.229-0.539,0.45-1.082,0.668-1.627c0.053-0.133,0.107-0.266,0.16-0.4c0.214-0.542,0.425-1.086,0.628-1.632l552.961-992.157
		c0.002,0.002,0.003,0.005,0.005,0.006c4.931,5.945,9.303,12.597,13.075,20.027c7.645,15.058,12.821,33.304,15.175,55.297
		c4.423,41.323,2.101,84.874,20.401,122.187c25.179,51.342,87.536,78.748,144.111,70.423
		C1920.095,1148.594,1981.272,967.398,1956.752,842.8z"/>
	<path style="fill:#008AC0;" d="M1956.752,842.8c-21.688-110.21-106.679-205.622-213.659-239.856
		c-43.19-13.82-90.233-18.115-134.039-6.391c-2.031,0.543-4.047,1.115-6.05,1.709c-12.835,3.812-25.123,8.661-36.969,14.352
		c-0.002,0.001-0.002,0.001-0.004,0.002c-36.84,17.696-69.422,43.513-100.978,71.447c-8.055,7.131-16.044,14.399-24.019,21.706
		c-0.001,0.001-0.004,0.003-0.005,0.004c-64.136,58.757-127.426,119.972-217.829,131.706c-3.096,0.402-6.196,0.731-9.299,1.006
		c-25.288,2.237-50.824,0.588-76.273,0.487c-1.827-0.008-3.654-0.007-5.481,0.003c23.393,11.282,47.034,18.374,70.853,22.589
		c35.694,6.316,71.793,6.175,108.069,4c46.269-2.774,92.826-8.856,139.203-9.063c9.563-0.043,18.844,0.203,27.804,0.796
		c28.123,1.86,53.097,7.14,73.769,17.657c13.024,6.625,24.34,15.331,33.662,26.569c0.002,0.002,0.003,0.005,0.005,0.006
		c4.931,5.945,9.303,12.597,13.075,20.027c7.645,15.058,12.821,33.304,15.175,55.297c4.423,41.323,2.101,84.874,20.401,122.187
		c25.179,51.342,87.536,78.748,144.111,70.423C1920.095,1148.594,1981.272,967.398,1956.752,842.8z"/>
	<path style="fill:#008AC0;" d="M1547.261,590.061c12.82-4.298,25.495-9.025,37.889-14.346
		c18.732-8.043,36.817-17.442,53.775-28.766c25.705-17.165,49.065-40.006,68.114-66.101c24.103-33.019,41.303-71.246,47.613-109.773
		c10.397-63.478,1.064-175.491-58.349-214.272c-31.653-20.661-74.242-21.056-104.388,2.2
		c-36.62,28.249-47.644,76.533-37.333,120.054c21.523,90.85,33.608,178.67-1.657,261.491c-5.11,12.003-11.216,23.9-18.43,35.686
		c-0.001,0-0.001,0-0.001,0.001c-4.631,7.566-9.717,15.087-15.293,22.56c9.393-2.727,18.764-5.618,28.058-8.733
		C1547.258,590.062,1547.26,590.061,1547.261,590.061z"/>
	<path style="fill:#008AC0;" d="M1247.159,380.678c3.452,21.825,13.155,42.876,27.254,60.507
		c42.949,53.706,80.567,108.117,98.825,168.998c7.135,23.797,11.314,48.582,11.696,74.7v0.007
		c0.283,19.369-1.521,39.47-5.754,60.445c16.172-14.311,31.901-29.296,46.388-45.317c0.002-0.002,0.003-0.004,0.005-0.005
		c8.616-9.53,16.794-19.426,24.361-29.766c5.432-7.423,10.552-15.073,15.294-22.982c15.894-26.509,27.241-57.147,33.299-88.882
		c0.922-4.83,1.72-9.685,2.395-14.554c0,0,0,0,0-0.001c2.244-16.202,3.101-32.567,2.479-48.702
		c-0.746-19.334-3.619-38.338-8.784-56.333c-17.751-61.826-74.096-159.085-144.386-168.73c-37.448-5.138-76.114,12.72-93.418,46.635
		c-3.352,6.569-5.895,13.32-7.693,20.17c-3.786,14.422-4.258,29.281-1.963,43.798L1247.159,380.678z"/>
	<path style="fill:#008AC0;" d="M1151.994,1026.756c-1.91-0.147-3.828-0.255-5.742-0.387c-5.346-0.369-10.696-0.704-16.058-0.964
		c-1.498-0.076-2.986-0.199-4.487-0.269h-0.005l-0.038,0.079c-37.789-1.628-75.904-0.817-114.067,0.81
		c-9.38-3.542-18.692-7.241-27.76-11.503c-116.532-54.772-174.923-187.06-276.961-265.596
		c-39.428-30.347-84.974-54.37-133.446-66.292c-24.065-5.919-49.031-8.726-73.791-6.841c-23.914,1.82-49.243,6.46-70.328,18.221
		c-16.869,9.409-31.608,22.683-42.496,38.655c-7.262,10.651-12.814,22.742-15.021,35.5l-0.172,1.321l-7.05,34.007L343.22,906.589
		l-126.051,608.3l-6.453,31.14l0.016,0.006c-4.674,12.563-6.153,25.961-4.7,39.944c9.649,92.916,148.821,211.694,341.619,283.469
		c53.628,19.965,106.486,34.449,156.332,43.603c0.006,0.001,0.013,0.003,0.02,0.004l-0.003,0.006l0.786,0.137
		c1.146,0.209,2.29,0.416,3.432,0.619c3.427,0.611,6.84,1.197,10.237,1.756c2.264,0.374,4.523,0.735,6.773,1.086
		c2.251,0.351,4.496,0.691,6.732,1.019c0.653,0.096,1.305,0.191,1.956,0.285c8.788,1.266,17.461,2.356,26.006,3.274
		c0.738,0.079,1.475,0.158,2.211,0.235c8.449,0.88,16.771,1.588,24.953,2.126c0.756,0.05,1.512,0.1,2.264,0.147
		c2.036,0.127,4.066,0.245,6.087,0.353c2.02,0.108,4.032,0.206,6.033,0.29l0.508,0.018c3.824,0.159,7.607,0.269,11.362,0.349
		c0.716,0.016,1.435,0.032,2.15,0.045c1.953,0.034,3.896,0.06,5.832,0.076c1.934,0.015,3.86,0.02,5.772,0.012l0.769-0.008
		c0.914-0.005,1.823-0.013,2.731-0.024c2.674-0.03,5.327-0.083,7.96-0.154c0.647-0.017,1.296-0.032,1.94-0.052
		c0.934-0.029,1.865-0.06,2.794-0.093c2.787-0.1,5.552-0.222,8.287-0.371l0.935-0.057c1.698-0.096,3.385-0.202,5.063-0.317
		c1.677-0.115,3.345-0.24,5.003-0.372c0.571-0.045,1.147-0.088,1.716-0.136c1.776-0.149,3.541-0.307,5.295-0.476
		c1.753-0.169,3.494-0.348,5.223-0.539l1.033-0.121c3.209-0.363,6.376-0.765,9.503-1.201c0.473-0.066,0.95-0.128,1.421-0.195
		c0.839-0.121,1.675-0.244,2.509-0.369c0.625-0.094,1.249-0.19,1.87-0.287c1.863-0.291,3.712-0.596,5.544-0.914l1.105-0.2
		c2.994-0.531,5.941-1.099,8.846-1.701l1.243-0.254c3.128-0.663,6.202-1.368,9.222-2.114l1.169-0.298
		c2.072-0.522,4.117-1.064,6.135-1.624c0.672-0.187,1.342-0.377,2.01-0.568l1.081-0.306c1.435-0.419,2.855-0.849,4.261-1.289
		c1.405-0.44,2.796-0.891,4.174-1.351l1.284-0.44c2.488-0.849,4.932-1.73,7.322-2.646l0.984-0.371
		c0.648-0.252,1.291-0.507,1.932-0.764c1.92-0.772,3.804-1.568,5.658-2.384c0.451-0.198,0.893-0.403,1.34-0.604
		c0.552-0.248,1.099-0.498,1.645-0.75c1.636-0.756,3.245-1.529,4.826-2.322l0.922-0.455c2.284-1.164,4.498-2.373,6.661-3.614
		c0.48-0.276,0.95-0.558,1.424-0.837c1.892-1.115,3.738-2.257,5.532-3.431l0.894-0.574c1.965-1.309,3.855-2.663,5.697-4.046
		c0.488-0.367,0.967-0.74,1.447-1.113c0.782-0.606,1.554-1.219,2.314-1.839c0.76-0.62,1.508-1.246,2.243-1.88l0.895-0.756
		c0.853-0.751,1.682-1.514,2.498-2.286l1.058-1.014l1.141-1.125c0.479-0.478,0.944-0.961,1.41-1.446l0.92-0.968
		c0.911-0.972,1.798-1.958,2.659-2.958l0.885-1.006c1.297-1.552,2.514-3.148,3.691-4.765c0.438-0.601,0.864-1.209,1.285-1.819
		l0.684-1.008c0.678-1.012,1.333-2.036,1.964-3.073c0.375-0.617,0.749-1.233,1.109-1.858c0.849-1.477,1.644-2.981,2.399-4.505
		c0.364-0.735,0.715-1.476,1.057-2.223c0.316-0.688,0.621-1.381,0.917-2.08c0.296-0.698,0.582-1.401,0.86-2.108
		c0.177-0.448,0.395-0.876,0.563-1.328l15.479-27.776l164.856-295.849l229.227-411.377c-76.028-43.57-160.995-71.524-248.089-81.175
		C1167.705,1028.052,1159.856,1027.359,1151.994,1026.756z"/>
	<path style="fill:#02B3D9;" d="M629.516,999.811c120.025,46.304,251.294,31.79,382.081,26.214
		c-9.38-3.542-18.692-7.241-27.76-11.503c-116.532-54.772-174.923-187.06-276.961-265.596
		c-39.428-30.347-84.974-54.37-133.446-66.292c-24.065-5.919-49.031-8.726-73.791-6.841c-23.914,1.82-49.243,6.46-70.328,18.221
		c-16.869,9.409-31.608,22.683-42.496,38.655c-7.262,10.651-12.814,22.742-15.021,35.5l-0.172,1.321l0.483-2.335
		c14.2,21.236,28.909,42.086,44.406,62.175"/>
	<path style="fill:#02B3D9;" d="M715.117,1889.992c-0.003,0-0.006-0.001-0.01-0.002c4.555-9.45,9.488-19.703,14.761-30.687
		c9.542-19.877,20.208-42.161,31.813-66.461c19.957-41.787,42.693-89.536,67.276-141.276
		c-48.857-29.512-106.575-57.405-170.028-81.028c-58.823-21.899-116.317-37.799-169.217-47.668c0,0.005,0.001,0.011,0.003,0.016
		c-15.069-2.818-29.766-5.145-44.014-6.981c-0.236-0.03-0.473-0.06-0.708-0.091c-0.364-0.046-0.728-0.093-1.094-0.139
		c-0.464-0.058-0.927-0.116-1.391-0.174l-0.464-0.058c-69.138-8.546-127.454-5.4-166.134,9.502
		c-0.015,0.006-0.031,0.012-0.046,0.018c-0.32,0.123-0.639,0.247-0.956,0.372c-0.134,0.053-0.269,0.106-0.403,0.16
		c-0.208,0.083-0.415,0.166-0.624,0.249c-0.238,0.096-0.475,0.193-0.711,0.289c-0.111,0.046-0.223,0.091-0.334,0.138
		c-0.325,0.134-0.648,0.269-0.969,0.404c-0.028,0.011-0.055,0.023-0.082,0.034c-2.286,0.967-4.496,1.978-6.631,3.034
		c0-0.002-0.001-0.003-0.001-0.005c-18.214,8.994-30.828,21.209-36.579,36.659c-3.134,8.417-4.097,17.44-3.05,26.937
		c8.37,75.862,145.204,181.962,331.408,251.283c54.745,20.38,108.339,35.565,158.15,45.528l0.01,0.002
		c103.428,20.686,190.539,18.859,237.752-5.713C905.631,1908.889,818.544,1910.701,715.117,1889.992z"/>
	<path style="fill:#02B3D9;" d="M652.454,1356.848c9.817-26.369-3.602-55.703-29.97-65.519c-26.368-9.817-55.703,3.602-65.518,29.97
		c-9.817,26.369,3.601,55.703,29.969,65.52C613.303,1396.635,642.638,1383.217,652.454,1356.848z"/>
	<path style="fill:#02B3D9;" d="M827.425,1501.153c-16.223-6.039-34.27,2.216-40.309,18.438c-6.04,16.223,2.216,34.27,18.438,40.309
		c16.223,6.04,34.269-2.216,40.309-18.438C851.903,1525.239,843.648,1507.192,827.425,1501.153z"/>
	<path style="fill:#02B3D9;" d="M638.159,1437.829c10.282,3.828,21.721-1.404,25.548-11.686c3.828-10.282-1.404-21.72-11.686-25.548
		c-10.282-3.828-21.72,1.404-25.548,11.686C622.645,1422.563,627.878,1434.001,638.159,1437.829z"/>
	<path style="fill:#02B3D9;" d="M695.335,1184.726c-3.828,10.282,1.404,21.72,11.686,25.548
		c10.282,3.828,21.721-1.404,25.548-11.686c3.829-10.282-1.403-21.72-11.685-25.548
		C710.6,1169.212,699.163,1174.444,695.335,1184.726z"/>
	<path style="fill:#0083BD;" d="M1175.529,1028.924c-7.834-0.865-15.678-1.566-23.536-2.168c-1.91-0.147-3.828-0.255-5.742-0.387
		c-5.343-0.371-10.696-0.69-16.058-0.964c-1.498-0.076-2.986-0.199-4.487-0.269h-0.005l-0.038,0.079
		c-13.587,28.746-27.604,58.398-41.913,88.659c-79.934,169.044-168.989,357.143-243.184,513.268
		c-3.909,8.226-7.778,16.366-11.602,24.407l-0.007,0.016c-24.583,51.74-47.319,99.489-67.276,141.276
		c-11.605,24.3-22.271,46.584-31.813,66.461c-5.273,10.984-10.206,21.237-14.761,30.687l0.01,0.002
		c103.427,20.708,190.514,18.896,237.725-5.657c-47.213,24.572-134.324,26.4-237.752,5.713l-0.01-0.002
		c-2.771,5.759-5.403,11.208-7.881,16.354c-1.096,2.277-2.163,4.495-3.197,6.654l-0.003,0.006l0.786,0.137
		c1.146,0.209,2.29,0.416,3.432,0.619c3.427,0.611,6.84,1.197,10.237,1.756c2.264,0.374,4.523,0.735,6.773,1.086
		c2.251,0.351,4.496,0.691,6.732,1.019c0.653,0.096,1.305,0.191,1.956,0.285c8.788,1.266,17.461,2.356,26.006,3.274
		c0.738,0.079,1.475,0.158,2.211,0.235c8.449,0.88,16.771,1.588,24.953,2.126c0.756,0.05,1.512,0.1,2.264,0.147
		c2.036,0.127,4.066,0.245,6.087,0.353c2.02,0.108,4.032,0.206,6.033,0.29l0.508,0.018c3.824,0.159,7.607,0.269,11.362,0.349
		c0.716,0.016,1.435,0.032,2.15,0.045c1.953,0.034,3.896,0.06,5.832,0.076c1.934,0.015,3.86,0.02,5.772,0.012l0.769-0.008
		c0.914-0.005,1.823-0.013,2.731-0.024c2.674-0.03,5.327-0.083,7.96-0.154c0.647-0.017,1.296-0.032,1.94-0.052
		c0.934-0.029,1.865-0.06,2.794-0.093c2.787-0.1,5.552-0.222,8.287-0.371l0.935-0.057c1.698-0.096,3.385-0.202,5.063-0.317
		c1.677-0.115,3.345-0.24,5.003-0.372c0.571-0.045,1.147-0.088,1.716-0.136c1.774-0.149,3.541-0.307,5.295-0.476
		c1.753-0.169,3.494-0.348,5.223-0.539l1.033-0.121c3.209-0.363,6.376-0.765,9.503-1.201c0.473-0.066,0.95-0.128,1.421-0.195
		c0.839-0.121,1.675-0.244,2.509-0.369c0.625-0.094,1.249-0.19,1.87-0.287c1.863-0.291,3.712-0.596,5.544-0.914l1.105-0.2
		c2.994-0.531,5.941-1.099,8.846-1.701l1.243-0.254c3.128-0.663,6.202-1.368,9.222-2.114l1.169-0.298
		c2.072-0.522,4.117-1.064,6.135-1.624c0.672-0.187,1.342-0.377,2.01-0.568l1.081-0.306c1.435-0.42,2.855-0.849,4.261-1.289
		c1.405-0.44,2.796-0.891,4.174-1.351l1.284-0.44c2.488-0.849,4.932-1.73,7.322-2.646l0.984-0.371
		c0.648-0.252,1.291-0.507,1.932-0.764c1.918-0.772,3.803-1.568,5.658-2.384c0.451-0.198,0.893-0.403,1.34-0.604
		c0.552-0.248,1.099-0.498,1.645-0.75c1.636-0.756,3.245-1.529,4.826-2.322l0.922-0.455c2.284-1.164,4.498-2.373,6.661-3.614
		c0.48-0.276,0.95-0.558,1.424-0.837c1.892-1.115,3.738-2.257,5.532-3.431l0.894-0.574c1.965-1.309,3.855-2.663,5.697-4.046
		c0.488-0.367,0.967-0.74,1.447-1.113c0.782-0.606,1.554-1.219,2.314-1.839c0.76-0.62,1.508-1.246,2.243-1.88l0.895-0.756
		c0.853-0.751,1.682-1.514,2.498-2.286l1.058-1.014l1.141-1.125c0.479-0.478,0.944-0.961,1.41-1.446l0.92-0.968
		c0.911-0.972,1.798-1.958,2.659-2.958l0.885-1.006c1.297-1.552,2.513-3.148,3.691-4.765c0.438-0.601,0.864-1.209,1.285-1.819
		l0.684-1.008c0.678-1.012,1.332-2.036,1.964-3.073c0.375-0.617,0.749-1.233,1.109-1.858c0.849-1.477,1.644-2.981,2.399-4.505
		c0.364-0.735,0.715-1.476,1.057-2.223c0.316-0.688,0.621-1.381,0.917-2.08c0.294-0.698,0.582-1.401,0.86-2.108
		c0.177-0.448,0.395-0.876,0.563-1.328l15.479-27.776l164.856-295.849l229.227-411.377
		C1347.59,1066.529,1262.624,1038.575,1175.529,1028.924z"/>
	<path style="fill:#5694C3;" d="M630.706,995.192l-1.192,4.578c-2.08-0.774-4.144-1.593-6.207-2.411
		c-1.186-0.48-2.367-0.967-3.546-1.457c-0.324-0.134-0.648-0.269-0.972-0.405c-1.133-0.475-2.266-0.953-3.391-1.437
		c-0.247-0.106-0.492-0.214-0.738-0.32c-0.953-0.412-1.903-0.827-2.849-1.244c-0.334-0.147-0.666-0.294-0.999-0.441
		c-1.084-0.482-2.166-0.968-3.243-1.458c-0.346-0.158-0.692-0.317-1.038-0.476c-0.833-0.382-1.665-0.767-2.495-1.155
		c-0.358-0.167-0.716-0.332-1.072-0.5c-1.029-0.483-2.053-0.971-3.075-1.462c-0.413-0.199-0.825-0.399-1.238-0.598
		c-0.797-0.387-1.592-0.775-2.385-1.166c-0.353-0.174-0.708-0.347-1.06-0.522c-0.983-0.488-1.96-0.98-2.937-1.475
		c-0.414-0.21-0.829-0.421-1.241-0.632c-0.837-0.428-1.672-0.858-2.505-1.291c-0.494-0.257-0.987-0.515-1.48-0.774
		c-0.747-0.393-1.492-0.786-2.237-1.183c-0.442-0.235-0.884-0.471-1.325-0.708c-0.95-0.51-1.898-1.024-2.842-1.541
		c-0.404-0.221-0.806-0.445-1.209-0.668c-0.667-0.367-1.33-0.737-1.993-1.108c-0.443-0.247-0.883-0.493-1.323-0.741
		c-0.912-0.515-1.822-1.033-2.728-1.554c-0.462-0.265-0.921-0.532-1.381-0.798c-0.62-0.359-1.238-0.719-1.855-1.082
		c-0.432-0.253-0.865-0.506-1.296-0.761c-0.894-0.528-1.783-1.06-2.672-1.595c-0.461-0.277-0.921-0.556-1.381-0.836
		c-0.626-0.38-1.251-0.761-1.873-1.143c-0.611-0.375-1.22-0.75-1.828-1.128c-0.666-0.414-1.332-0.829-1.997-1.247
		c-0.461-0.29-0.921-0.581-1.381-0.872c-0.687-0.436-1.373-0.873-2.056-1.312c-0.595-0.382-1.186-0.765-1.779-1.149
		c-0.594-0.386-1.187-0.772-1.778-1.161c-0.457-0.299-0.912-0.598-1.367-0.899c-0.846-0.56-1.69-1.122-2.531-1.687
		c-0.443-0.297-0.884-0.597-1.327-0.896c-0.554-0.376-1.11-0.753-1.662-1.131c-0.442-0.303-0.885-0.605-1.327-0.909
		c-0.827-0.57-1.65-1.143-2.474-1.718c-0.466-0.326-0.932-0.655-1.397-0.983c-0.521-0.368-1.041-0.737-1.561-1.107
		c-0.608-0.432-1.213-0.865-1.818-1.3c-0.636-0.458-1.272-0.917-1.905-1.378c-0.483-0.351-0.963-0.703-1.444-1.056
		c-0.503-0.369-1.005-0.739-1.506-1.11c-0.731-0.541-1.46-1.084-2.188-1.628c-0.479-0.358-0.957-0.717-1.435-1.078
		c-0.506-0.383-1.012-0.767-1.518-1.152c-0.473-0.36-0.945-0.722-1.416-1.084c-0.773-0.595-1.547-1.192-2.317-1.792
		c-0.398-0.309-0.795-0.618-1.191-0.929c-0.534-0.418-1.067-0.836-1.598-1.256c-0.325-0.257-0.648-0.515-0.972-0.772
		c-0.935-0.743-1.868-1.49-2.798-2.24c-0.315-0.255-0.631-0.51-0.945-0.765c-1.156-0.937-2.308-1.88-3.454-2.829
		c-0.075-0.061-0.151-0.123-0.224-0.184c-0.592-0.489-1.181-0.981-1.771-1.473c-0.232-0.194-0.464-0.389-0.695-0.583
		c-1.12-0.94-2.236-1.884-3.348-2.834c-0.124-0.107-0.251-0.214-0.375-0.321c-0.619-0.529-1.235-1.06-1.852-1.592
		c-0.123-0.107-0.246-0.214-0.37-0.321c-32.091-27.795-60.582-59.595-86.822-93.573l0.011-0.047l0.338-1.503
		c-0.001-0.001-0.003-0.001-0.003-0.003l-0.337,1.502l-105.914,471.003c-4.542,20.198,7.178,45.347,26.235,56.329l137.671,79.326
		c19.822,11.422,40.241,4.305,45.548-16.061l109.466-420.115l1.202-4.612C630.713,995.197,630.711,995.195,630.706,995.192z"/>
	<path style="fill:#5694C3;" d="M269.516,1527.65c0.764-0.342,1.486-0.708,2.268-1.038c0.027-0.011,0.054-0.022,0.082-0.034
		c0.321-0.136,0.644-0.271,0.969-0.404c0.111-0.046,0.223-0.092,0.334-0.138c0.236-0.097,0.474-0.193,0.711-0.289
		c0.209-0.083,0.416-0.166,0.624-0.249c0.134-0.053,0.269-0.106,0.403-0.16c0.318-0.125,0.636-0.249,0.956-0.372
		c0.014-0.006,0.03-0.012,0.046-0.018c38.68-14.903,96.996-18.048,166.134-9.502l0.464,0.058c0.464,0.057,0.927,0.115,1.391,0.174
		c0.366,0.046,0.73,0.092,1.094,0.139c0.236,0.03,0.473,0.061,0.708,0.091c14.249,1.836,28.945,4.163,44.014,6.981
		c-0.001-0.005-0.003-0.011-0.003-0.016c-1.521-10.56-6.596-21.252-14.132-29.711c-3.742-4.2-8.087-7.85-12.907-10.658
		l-136.517-79.567c-18.9-11.016-37.751-3.923-42.161,15.69l-17.401,77.376l-2.613,11.618c-1.508,6.707-1.023,14.075,0.996,21.293
		C266.44,1528.323,267.95,1527.883,269.516,1527.65z"/>
	<path style="fill:#5694C3;" d="M1859.834,705.915c-53.534-57.014-121.623-81.038-198.164-89.529
		c-10.416-1.155-21.561-1.827-30.761,3.188c80.736,26.647,153.844,99.53,159.668,187.659
		c6.614,100.057-110.645,200.845-31.792,297.191c9.394,11.479,21.424,21.457,35.778,25.194c23.147,6.028,47.539-5.249,65.923-20.568
		c58.582-48.81,86.595-123.019,84.024-198.295C1941.944,835.667,1911.312,760.741,1859.834,705.915z"/>
	<path style="fill:#5694C3;" d="M1677.948,802.216c-25.979,0-47.039,39.958-47.039,89.249c0,49.29,21.06,89.249,47.039,89.249
		c25.979,0,47.04-39.958,47.04-89.249C1724.988,842.174,1703.927,802.216,1677.948,802.216z"/>
	<path style="fill:#5694C3;" d="M1617.839,390.897c2.732,1.413,5.876,2.447,8.863,1.709c2.474-0.611,4.497-2.35,6.335-4.115
		c29.077-27.926,59.388-132.945,16.491-161.622c-20.402-13.639-41.681,4.576-52.269,22.204
		c-17.064,28.412-10.739,67.068-4.671,97.888C1595.968,364.13,1602.293,382.859,1617.839,390.897z"/>
	<path style="fill:#5694C3;" d="M1711.867,278.649c9.705,3.616,20.6-4.92,23.041-14.985c2.441-10.064-1.226-20.561-5.652-29.924
		c-4.663-9.864-11.071-20.02-21.375-23.609c-12.348-4.301-26.12,7.444-26.445,19.938c-0.367,14.088,12.152,31.413,21.119,41.391
		C1705.203,274.407,1708.156,277.266,1711.867,278.649z"/>
	<path style="fill:#5694C3;" d="M1300.019,407.342l0.002,0.011c2.027,28.896,21.303,56.645,37.786,78.955
		c10.4,14.074,24.129,28.299,41.617,28.915c3.075,0.108,6.358-0.302,8.742-2.245c1.976-1.611,3.061-4.048,3.967-6.429
		c3.836-10.077,5.39-25.176,4.637-42.035c0-0.003-0.001-0.005-0.001-0.008c-0.758-16.934-3.846-35.641-9.299-52.82
		c-9.415-29.667-25.877-54.771-49.555-58.285c-12.815-1.901-22.052,4.326-28.219,13.638c-5.515,8.329-8.573,19.127-9.531,28.787
		C1299.782,399.679,1299.751,403.521,1300.019,407.342z"/>
	<path style="fill:#5694C3;" d="M1404.921,371.03c3.653,1.53,7.544,2.853,11.491,2.516c10.319-0.883,16.517-13.259,14.419-23.4
		c-2.099-10.141-9.903-18.062-17.907-24.632c-8.434-6.923-18.57-13.362-29.419-12.199c-13.001,1.393-20.426,17.901-15.376,29.333
		C1373.822,355.539,1392.548,365.845,1404.921,371.03z"/>
	<path style="fill:#009ED1;" d="M1010.008,1656.849c12.079-32.445-4.431-68.54-36.877-80.619
		c-32.445-12.079-68.54,4.431-80.619,36.877c-6.471,17.383-4.735,35.813,3.259,51.037c6.928,13.191,18.555,23.974,33.617,29.582
		c1.921,0.715,3.855,1.329,5.795,1.846C966.023,1703.793,998.644,1687.374,1010.008,1656.849z"/>
	<path style="fill:#009ED1;" d="M1054.343,1385.564c-35.486-13.211-74.963,4.847-88.174,40.333
		c-13.211,35.486,4.846,74.963,40.332,88.173c35.486,13.211,74.963-4.847,88.173-40.333
		C1107.886,1438.252,1089.829,1398.775,1054.343,1385.564z"/>
	<path style="fill:#009ED1;" d="M1177.3,1406.549c10.283,3.828,21.721-1.404,25.548-11.686c3.828-10.282-1.404-21.72-11.686-25.548
		c-10.282-3.828-21.72,1.404-25.548,11.686C1161.787,1391.283,1167.019,1402.721,1177.3,1406.549z"/>
	<path style="fill:#009ED1;" d="M761.682,1792.843c-11.605,24.3-22.271,46.584-31.813,66.461
		c-5.273,10.984-10.206,21.237-14.761,30.687c0.004,0,0.007,0.001,0.01,0.002c103.427,20.708,190.514,18.896,237.725-5.657
		c0.003-0.001,0.005-0.003,0.008-0.005c0.479-0.249,0.952-0.5,1.423-0.754c0.067-0.036,0.134-0.073,0.201-0.109
		c0.386-0.21,0.769-0.421,1.151-0.634c0.091-0.051,0.184-0.102,0.275-0.154c0.412-0.231,0.82-0.464,1.224-0.699
		c0.133-0.078,0.265-0.156,0.397-0.234c0.271-0.159,0.541-0.319,0.809-0.48c0.177-0.106,0.353-0.211,0.527-0.317
		c0.329-0.201,0.657-0.403,0.982-0.606c0.212-0.133,0.423-0.267,0.633-0.401c0.179-0.114,0.358-0.229,0.536-0.344
		c0.216-0.14,0.432-0.279,0.646-0.421c0.106-0.07,0.21-0.14,0.315-0.21c0.463-0.306,0.919-0.616,1.37-0.929
		c0.074-0.051,0.149-0.102,0.222-0.154c3.046-2.122,5.855-4.371,8.42-6.75c7.011-6.503,12.19-13.964,15.326-22.389
		c5.602-15.047,4.26-32.037-3.129-50.215c-0.015-0.034-0.027-0.067-0.041-0.101c-0.134-0.33-0.27-0.659-0.41-0.99
		c-0.028-0.068-0.057-0.138-0.086-0.206c-0.227-0.54-0.461-1.082-0.698-1.623c-0.066-0.151-0.132-0.301-0.198-0.452
		c-0.107-0.242-0.216-0.484-0.325-0.726c-0.099-0.219-0.199-0.437-0.298-0.656c-0.093-0.203-0.185-0.405-0.279-0.608
		c-0.195-0.417-0.392-0.836-0.592-1.254c-0.05-0.105-0.102-0.211-0.152-0.316c-0.178-0.369-0.358-0.739-0.541-1.109
		c-0.052-0.105-0.103-0.21-0.156-0.315c-14.553-29.281-43.891-61.246-84.5-92.916c-0.219-0.171-0.439-0.341-0.658-0.511
		c-0.402-0.312-0.805-0.625-1.21-0.938c-0.254-0.197-0.509-0.394-0.763-0.591c-0.536-0.412-1.072-0.824-1.611-1.236
		c-0.441-0.338-0.886-0.676-1.329-1.013c-0.09-0.069-0.18-0.137-0.27-0.206c-18.319-13.908-38.783-27.731-61.096-41.217
		c-0.003,0.005-0.005,0.011-0.007,0.016C804.374,1703.307,781.639,1751.055,761.682,1792.843z"/>
	<path style="fill:#50BBDB;" d="M444.993,1515.815c-0.364-0.046-0.728-0.093-1.094-0.139c-0.464-0.058-0.927-0.116-1.391-0.174
		l-0.464-0.058c-69.138-8.546-127.454-5.4-166.134,9.502c-0.015,0.006-0.031,0.012-0.046,0.018c-0.32,0.123-0.639,0.247-0.956,0.372
		c-0.134,0.053-0.269,0.106-0.403,0.16c-0.208,0.083-0.415,0.166-0.624,0.249c-0.238,0.096-0.475,0.193-0.711,0.289
		c-0.111,0.046-0.223,0.091-0.334,0.138c-0.325,0.134-0.648,0.269-0.969,0.404c-0.028,0.011-0.055,0.023-0.082,0.034
		c-2.286,0.967-4.496,1.978-6.631,3.034c-0.009,0.005-0.018,0.009-0.026,0.013c0.912,3.057,2.107,6.082,3.549,9.014l0.001,0.002
		c0.134,0.272,0.268,0.543,0.407,0.813c0.072,0.142,0.146,0.284,0.219,0.426c0.087,0.165,0.172,0.331,0.259,0.495
		c4.664,8.756,11.567,16.534,19.901,21.585l132.589,80.295c19.065,11.581,38.592,5.551,43.57-13.505l23.35-89.652
		c0.502-1.898,0.843-3.849,1.035-5.836c0.014-0.146,0.027-0.292,0.039-0.438c0.013-0.159,0.027-0.317,0.039-0.476
		c0.018-0.254,0.033-0.51,0.048-0.766c0.002-0.048,0.006-0.095,0.008-0.143c0.142-2.814-0.001-5.69-0.412-8.584l-0.014-0.003
		c-15.069-2.818-29.766-5.145-44.014-6.981C445.465,1515.876,445.229,1515.845,444.993,1515.815z"/>
	<path style="fill:#50BBDB;" d="M416.513,829.333l-0.011,0.047c26.24,33.979,54.73,65.778,86.822,93.573
		c0.124,0.107,0.247,0.214,0.37,0.321c0.616,0.532,1.232,1.063,1.852,1.592c0.124,0.107,0.251,0.214,0.375,0.321
		c1.112,0.949,2.228,1.894,3.348,2.834c0.232,0.194,0.464,0.389,0.695,0.583c0.59,0.492,1.179,0.984,1.771,1.473
		c0.073,0.061,0.149,0.123,0.224,0.184c1.146,0.948,2.298,1.891,3.454,2.829c0.314,0.255,0.63,0.51,0.945,0.765
		c0.93,0.75,1.862,1.496,2.798,2.24c0.324,0.257,0.647,0.516,0.972,0.772c0.531,0.42,1.064,0.839,1.598,1.256
		c0.396,0.311,0.793,0.62,1.191,0.929c0.77,0.6,1.544,1.197,2.317,1.792c0.471,0.362,0.944,0.724,1.416,1.084
		c0.506,0.385,1.011,0.769,1.518,1.152c0.477,0.36,0.956,0.719,1.435,1.078c0.727,0.545,1.457,1.088,2.188,1.628
		c0.5,0.371,1.002,0.741,1.506,1.11c0.481,0.352,0.962,0.705,1.444,1.056c0.634,0.461,1.269,0.92,1.905,1.378
		c0.605,0.435,1.21,0.868,1.818,1.3c0.52,0.37,1.04,0.739,1.561,1.107c0.466,0.328,0.931,0.656,1.397,0.983
		c0.823,0.575,1.646,1.148,2.474,1.718c0.441,0.304,0.885,0.606,1.327,0.909c0.553,0.378,1.109,0.755,1.662,1.131
		c0.443,0.299,0.883,0.599,1.327,0.896c0.841,0.565,1.685,1.127,2.531,1.687c0.454,0.301,0.91,0.6,1.367,0.899
		c0.591,0.389,1.184,0.775,1.778,1.161c0.592,0.384,1.184,0.767,1.779,1.149c0.683,0.439,1.369,0.877,2.056,1.312
		c0.46,0.291,0.92,0.582,1.381,0.872c0.665,0.418,1.33,0.833,1.997,1.247c0.608,0.378,1.217,0.753,1.828,1.128
		c0.623,0.382,1.247,0.764,1.873,1.143c0.461,0.279,0.921,0.558,1.381,0.836c0.889,0.534,1.778,1.066,2.672,1.595
		c0.431,0.255,0.865,0.508,1.296,0.761c0.617,0.362,1.235,0.722,1.855,1.082c0.461,0.266,0.919,0.533,1.381,0.798
		c0.906,0.52,1.816,1.038,2.728,1.554c0.44,0.248,0.88,0.494,1.323,0.741c0.663,0.371,1.326,0.74,1.993,1.108
		c0.403,0.222,0.805,0.447,1.209,0.668c0.944,0.517,1.892,1.031,2.842,1.541c0.441,0.237,0.883,0.473,1.325,0.708
		c0.744,0.397,1.49,0.79,2.237,1.183c0.493,0.258,0.985,0.517,1.48,0.774c0.833,0.432,1.669,0.863,2.505,1.291
		c0.413,0.211,0.827,0.422,1.241,0.632c0.977,0.495,1.954,0.987,2.937,1.475c0.352,0.175,0.706,0.348,1.06,0.522
		c0.793,0.391,1.588,0.779,2.385,1.166c0.413,0.2,0.825,0.4,1.238,0.598c1.022,0.491,2.046,0.979,3.075,1.462
		c0.356,0.168,0.714,0.334,1.072,0.5c0.829,0.388,1.661,0.772,2.495,1.155c0.346,0.159,0.691,0.318,1.038,0.476
		c1.078,0.49,2.159,0.976,3.243,1.458c0.333,0.148,0.665,0.294,0.999,0.441c0.946,0.418,1.896,0.833,2.849,1.244
		c0.246,0.106,0.49,0.214,0.738,0.32c1.125,0.484,2.258,0.962,3.391,1.437c0.324,0.136,0.648,0.271,0.972,0.405
		c1.179,0.49,2.359,0.977,3.546,1.457c2.063,0.819,4.127,1.637,6.207,2.411l20.815-79.865c0.917-3.501,1.415-7.1,1.532-10.725
		c0.358-11.044-2.84-22.337-8.689-31.907c-4.191-6.857-9.741-12.829-16.313-17.191c-1.653-1.097-3.369-2.093-5.146-2.975
		l-152.239-75.419c-17.024-8.414-34.171-3.051-42.895,11.689c-2.069,3.498-3.666,7.521-4.673,12.016L416.513,829.333z"/>
</g>
</svg>
